
<svg version="1.0" 
 width="1200.000000pt" height="1200.000000pt" viewBox="0 0 1200.000000 1200.000000"
 preserveAspectRatio="xMidYMid meet">

<g transform="translate(0.000000,1200.000000) scale(0.100000,-0.100000)"
fill="#000000" stroke="none">
<path d="M5625 11244 c-22 -2 -98 -9 -170 -15 -264 -22 -668 -100 -960 -186
-500 -146 -993 -376 -1435 -668 -570 -376 -1089 -895 -1465 -1465 -292 -442
-522 -935 -668 -1435 -84 -286 -160 -675 -189 -965 -18 -182 -18 -838 0 -1020
29 -290 105 -679 189 -965 146 -500 376 -993 668 -1435 376 -570 895 -1089
1465 -1465 442 -292 935 -522 1435 -668 286 -84 675 -160 965 -189 182 -18
838 -18 1020 0 290 29 679 105 965 189 500 146 993 376 1435 668 487 322 928
738 1292 1220 369 488 666 1082 841 1680 84 286 160 675 189 965 18 182 18
838 0 1020 -29 290 -105 679 -189 965 -146 500 -376 993 -668 1435 -376 570
-895 1089 -1465 1465 -442 292 -935 522 -1435 668 -275 81 -618 150 -912 183
-130 15 -801 28 -908 18z m805 -539 c211 -22 326 -40 516 -80 204 -43 260 -59
256 -75 -5 -22 -1156 -1889 -1167 -1893 -18 -6 -3943 18 -3949 24 -8 7 76 126
182 259 697 875 1668 1470 2767 1694 210 42 396 67 700 90 106 8 557 -4 695
-19z m1430 -371 c243 -104 554 -277 790 -440 1013 -699 1707 -1750 1954 -2959
33 -164 52 -294 78 -535 7 -63 12 -243 12 -400 0 -273 -5 -364 -40 -640 -87
-693 -384 -1459 -798 -2053 -702 -1008 -1748 -1696 -2951 -1941 -164 -33 -294
-52 -535 -78 -148 -16 -652 -16 -800 0 -433 46 -718 105 -1075 220 -406 132
-865 360 -1218 606 -140 98 -357 268 -434 342 l-52 49 938 1524 c515 839 941
1526 947 1527 7 3 1626 -2570 1716 -2726 75 -132 270 -217 354 -155 24 18 416
650 2085 3359 264 428 369 607 369 628 0 63 -72 153 -157 197 -70 35 -119 43
-192 32 -78 -13 -1203 -21 -1199 -9 2 5 1361 934 1979 1351 49 34 82 104 82
176 0 88 -47 162 -133 207 -33 18 -92 19 -1155 25 -616 4 -1283 7 -1482 8
-215 1 -363 5 -363 10 0 5 234 391 520 857 287 466 528 860 536 875 l14 29 53
-21 c28 -11 99 -41 157 -65z m-4145 -2120 c974 -4 1832 -9 1907 -13 l138 -6
-542 -882 c-334 -544 -546 -879 -552 -873 -5 5 -233 366 -506 802 -390 622
-504 797 -530 812 -98 58 -273 -11 -331 -130 -45 -94 -72 -44 545 -1027 316
-504 556 -896 554 -906 -2 -10 -437 -725 -968 -1590 l-965 -1571 -44 47 c-73
79 -246 299 -337 430 -246 353 -474 812 -606 1218 -115 357 -174 642 -220
1075 -16 148 -16 652 0 800 57 529 146 907 316 1340 64 161 210 470 229 482 7
5 41 6 77 4 36 -3 862 -8 1835 -12z m5033 -29 c2 -2 -457 -317 -1020 -700
-563 -384 -1026 -702 -1030 -709 -4 -6 -8 -32 -8 -57 0 -58 44 -149 106 -218
87 -96 -3 -89 923 -79 447 5 815 7 817 5 3 -3 -426 -703 -952 -1556 -771
-1250 -959 -1550 -969 -1539 -7 7 -387 610 -844 1340 l-831 1326 676 1102 677
1102 1226 -7 c674 -4 1227 -9 1229 -10z"/>
</g>
</svg>
